# xmcd
#
# Track frame offsets:
# 150
# 19217
# 41381
# 63994
# 85550
# 100941
# 124666
# 149250
# 163991
# 179207
# 199413
#
# Disc length: 2926 seconds
#
# Revision: 25
# Processed by: cddbd v1.5.2PL0 Copyright (c) Steve Scherf et al.
# Submitted via: TinyPlayer 2.8
#
DISCID=9b0b6c0b
DTITLE=Journey - Revelation [Disc 2 of 2]
DYEAR=2008
DGENRE=Rock
TTITLE0=Only the Young [Re-recording]
TTITLE1=Don't Stop Believin' [Re-recording]
TTITLE2=Wheel in the Sky [Re-recording]
TTITLE3=Faithfully [Re-recording]
TTITLE4=Any Way You Want It [Re-recording]
TTITLE5=Who's Crying Now [Re-recording]
TTITLE6=Separate Ways [Re-recording]
TTITLE7=Lights [Re-recording]
TTITLE8=Open Arms [Re-recording]
TTITLE9=Be Good to Yourself [Re-recording]
TTITLE10=Stone in Love [Re-recording]
EXTD=Location:  - UPC: 8024391037621 - Catalogue number: FR CD 376 - Label: Frontiers Records - ASIN: B0018B7M3S - Release Date: 2008 06 06 - Discogs: a128395,m249634,r2218667 - MUSICBRAINZ_ALBUMID: 4624fd53-ccc3-34f7-8bc5-34b4db0ef2db - AMG: P4643,MW0000790966
EXTD=;
EXTT0=
EXTT1=
EXTT2=
EXTT3=
EXTT4=
EXTT5=
EXTT6=
EXTT7=
EXTT8=
EXTT9=
EXTT10=
PLAYORDER=
